<?xml version="1.0" encoding="iso-8859-1"?>
<!-- Generator: Adobe Illustrator 19.0.0, SVG Export Plug-In . SVG Version: 6.00 Build 0)  -->
<svg version="1.1" id="Capa_1" xmlns="http://www.w3.org/2000/svg" xmlns:xlink="http://www.w3.org/1999/xlink" x="0px" y="0px"
	 viewBox="0 0 464 464" style="enable-background:new 0 0 464 464;" xml:space="preserve">
<g>
	<circle style="fill:#FDBD40;" cx="232" cy="232" r="232"/>
	<circle style="fill:#FDBD40;" cx="232" cy="232" r="232"/>
</g>
<g>
	<path style="fill:#FCF05A;" d="M232,440c-4.418,0-8-3.582-8-8s3.582-8,8-8c105.987-0.123,191.877-86.013,192-192
		c0-4.418,3.582-8,8-8s8,3.582,8,8C439.872,346.822,346.822,439.872,232,440z"/>
	<path style="fill:#FCF05A;" d="M32,240c-4.418,0-8-3.582-8-8c0.128-114.822,93.178-207.872,208-208c4.418,0,8,3.582,8,8
		s-3.582,8-8,8C126.012,40.123,40.123,126.012,40,232C40,236.418,36.418,240,32,240z"/>
</g>
<g>
	<path style="fill:#5F79BA;" d="M232,120L232,120c8.837,0,16,7.163,16,16l0,0c0,8.837-7.163,16-16,16l0,0c-8.837,0-16-7.163-16-16
		l0,0C216,127.163,223.163,120,232,120z"/>
	<path style="fill:#5F79BA;" d="M248,320V184h-64v16c0,4.418,3.582,8,8,8h24v136h64v-16c0-4.418-3.582-8-8-8H248z"/>
</g>
<g>
</g>
<g>
</g>
<g>
</g>
<g>
</g>
<g>
</g>
<g>
</g>
<g>
</g>
<g>
</g>
<g>
</g>
<g>
</g>
<g>
</g>
<g>
</g>
<g>
</g>
<g>
</g>
<g>
</g>
</svg>
